# xmcd
#
# Track frame offsets: 
#        150
#        18430
#        32173
#        49766
#        66169
#        88181
#        106248
#        122941
#        141437
#        157653
#        175043
#        190318
#
# Disc length: 2779 seconds
#
# Revision: 3
# Processed by: cddbd v1.5.2PL0 Copyright (c) Steve Scherf et al.
# Submitted via: ExactAudioCopy v1.0b3
#
DISCID=a00ad90c
DTITLE=Grayson Capps - If You Knew My Mind
DYEAR=2005
DGENRE=Blues
TTITLE0=Get Back Up
TTITLE1=If You Knew My Mind
TTITLE2=Slidell
TTITLE3=I Can't Hear You
TTITLE4=A Love Song For Bobby Long
TTITLE5=Graveyard
TTITLE6=Mercy
TTITLE7=Lorraine's Song
TTITLE8=Washboard Lisa
TTITLE9=Buckshot
TTITLE10=How's I To Know
TTITLE11=I See You
EXTD=
EXTT0=
EXTT1=
EXTT2=
EXTT3=
EXTT4=
EXTT5=
EXTT6=
EXTT7=
EXTT8=
EXTT9=
EXTT10=
EXTT11=
PLAYORDER=
